<svg width="16" height="14" viewBox="0 0 16 14" fill="none" xmlns="http://www.w3.org/2000/svg">
<path d="M14.5833 5.91654H3.75L7.31417 2.35238C7.41571 2.25167 7.4963 2.13185 7.5513 1.99984C7.6063 1.86782 7.63461 1.72623 7.63461 1.58321C7.63461 1.4402 7.6063 1.2986 7.5513 1.16659C7.4963 1.03458 7.41571 0.914758 7.31417 0.814048C7.11119 0.612277 6.83662 0.499023 6.55042 0.499023C6.26421 0.499023 5.98964 0.612277 5.78667 0.814048L1.13917 5.47238C0.73228 5.87684 0.502419 6.42617 0.5 6.99987C0.505272 7.56982 0.734915 8.11473 1.13917 8.51654L5.78667 13.1749C5.88767 13.2752 6.00745 13.3546 6.13915 13.4086C6.27085 13.4626 6.4119 13.4901 6.55425 13.4896C6.69659 13.4891 6.83744 13.4606 6.96876 13.4057C7.10008 13.3507 7.21929 13.2705 7.31958 13.1694C7.41988 13.0684 7.4993 12.9487 7.55331 12.817C7.60732 12.6853 7.63485 12.5442 7.63435 12.4019C7.63385 12.2595 7.60531 12.1187 7.55038 11.9874C7.49544 11.856 7.41517 11.7368 7.31417 11.6365L3.75 8.08321H14.5833C14.8707 8.08321 15.1462 7.96907 15.3494 7.76591C15.5525 7.56274 15.6667 7.28719 15.6667 6.99987C15.6667 6.71256 15.5525 6.43701 15.3494 6.23384C15.1462 6.03068 14.8707 5.91654 14.5833 5.91654Z" fill="#260001"/>
</svg>
