<svg width="12" height="22" viewBox="0 0 12 22" fill="none" xmlns="http://www.w3.org/2000/svg">
<path d="M4.66667 13.6185V20.3513L5.58417 21.7701C5.78208 22.0761 6.21833 22.0761 6.41625 21.7701L7.33333 20.3513V13.6185C6.90042 13.701 6.45583 13.75 6 13.75C5.54417 13.75 5.09958 13.701 4.66667 13.6185ZM6 0C2.68625 0 0 2.7702 0 6.1875C0 9.6048 2.68625 12.375 6 12.375C9.31375 12.375 12 9.6048 12 6.1875C12 2.7702 9.31375 0 6 0ZM6 3.26562C4.4375 3.26562 3.16667 4.57617 3.16667 6.1875C3.16667 6.47195 2.9425 6.70312 2.66667 6.70312C2.39083 6.70312 2.16667 6.47195 2.16667 6.1875C2.16667 4.0077 3.88667 2.23437 6 2.23437C6.27583 2.23437 6.5 2.46555 6.5 2.75C6.5 3.03445 6.27583 3.26562 6 3.26562Z" fill="#006DE0"/>
</svg>
