<svg width="6" height="10" viewBox="0 0 6 10" fill="none" xmlns="http://www.w3.org/2000/svg">
<path d="M3.79794 4.52646C3.85949 4.58844 3.90833 4.66217 3.94167 4.74341C3.975 4.82465 3.99216 4.91179 3.99216 4.9998C3.99216 5.0878 3.975 5.17494 3.94167 5.25618C3.90833 5.33742 3.85949 5.41116 3.79794 5.47313L0.784191 8.52646C0.72265 8.58844 0.673803 8.66217 0.640469 8.74341C0.607134 8.82465 0.589973 8.91179 0.589973 8.9998C0.589973 9.0878 0.607134 9.17494 0.640469 9.25618C0.673803 9.33742 0.72265 9.41115 0.784191 9.47313C0.907212 9.5973 1.07363 9.66699 1.24709 9.66699C1.42055 9.66699 1.58696 9.5973 1.70998 9.47313L4.72374 6.41313C5.09261 6.03813 5.29981 5.5298 5.29981 4.9998C5.29981 4.4698 5.09261 3.96146 4.72374 3.58646L1.70999 0.526464C1.58769 0.403301 1.42262 0.333867 1.25037 0.33313C1.16396 0.332622 1.0783 0.349439 0.998302 0.382616C0.918304 0.415792 0.845544 0.464676 0.784192 0.526464C0.722651 0.58844 0.673804 0.662173 0.640469 0.743412C0.607135 0.824651 0.589973 0.911789 0.589973 0.999796C0.589973 1.0878 0.607135 1.17494 0.640469 1.25618C0.673804 1.33742 0.722651 1.41115 0.784192 1.47313L3.79794 4.52646Z" fill="black"/>
</svg>
