<svg width="16" height="16" viewBox="0 0 16 16" fill="none" xmlns="http://www.w3.org/2000/svg">
<g clip-path="url(#clip0_1_523)">
<path d="M15.2194 9.88531L12.6334 12.4713C12.5076 12.5927 12.3392 12.6599 12.1644 12.6584C11.9897 12.6569 11.8224 12.5868 11.6988 12.4632C11.5752 12.3396 11.5051 12.1724 11.5036 11.9976C11.5021 11.8228 11.5693 11.6544 11.6907 11.5286L14.2767 8.94264C14.3535 8.86429 14.4207 8.777 14.4767 8.68264C14.4667 8.68264 14.4587 8.68797 14.4487 8.68797L3.99272 8.66664C3.81591 8.66664 3.64634 8.5964 3.52131 8.47138C3.39629 8.34635 3.32605 8.17678 3.32605 7.99997C3.32605 7.82316 3.39629 7.65359 3.52131 7.52857C3.64634 7.40354 3.81591 7.33331 3.99272 7.33331L14.4447 7.35464C14.4634 7.35464 14.4787 7.36397 14.4967 7.36531C14.4376 7.25253 14.3626 7.14881 14.274 7.05731L11.688 4.47131C11.6244 4.40981 11.5736 4.33624 11.5386 4.25491C11.5037 4.17357 11.4853 4.08609 11.4845 3.99757C11.4838 3.90905 11.5006 3.82127 11.5342 3.73934C11.5677 3.65741 11.6172 3.58297 11.6798 3.52038C11.7424 3.45778 11.8168 3.40828 11.8987 3.37476C11.9807 3.34124 12.0685 3.32437 12.157 3.32514C12.2455 3.32591 12.333 3.3443 12.4143 3.37924C12.4957 3.41418 12.5692 3.46497 12.6307 3.52864L15.2167 6.11464C15.7166 6.61471 15.9975 7.29287 15.9975 7.99997C15.9975 8.70708 15.7166 9.38523 15.2167 9.88531H15.2194Z" fill="black"/>
<path d="M4.66667 1.3333H3.33333C2.8029 1.3333 2.29419 1.54402 1.91912 1.91909C1.54405 2.29416 1.33333 2.80287 1.33333 3.3333V12.6666C1.33333 13.1971 1.54405 13.7058 1.91912 14.0808C2.29419 14.4559 2.8029 14.6666 3.33333 14.6666H4.66667C4.84348 14.6666 5.01305 14.7369 5.13807 14.8619C5.2631 14.9869 5.33333 15.1565 5.33333 15.3333C5.33333 15.5101 5.2631 15.6797 5.13807 15.8047C5.01305 15.9297 4.84348 16 4.66667 16H3.33333C2.4496 15.9989 1.60237 15.6474 0.97748 15.0225C0.352588 14.3976 0.00105857 13.5504 0 12.6666L0 3.3333C0.00105857 2.44957 0.352588 1.60234 0.97748 0.977448C1.60237 0.352556 2.4496 0.00102758 3.33333 -3.09944e-05H4.66667C4.84348 -3.09944e-05 5.01305 0.0702064 5.13807 0.195231C5.2631 0.320255 5.33333 0.489825 5.33333 0.666636C5.33333 0.843447 5.2631 1.01302 5.13807 1.13804C5.01305 1.26306 4.84348 1.3333 4.66667 1.3333Z" fill="black"/>
</g>
<defs>
<clipPath id="clip0_1_523">
<rect width="16" height="16" fill="white" transform="matrix(1 0 0 -1 0 16)"/>
</clipPath>
</defs>
</svg>
