<svg width="24" height="24" viewBox="0 0 24 24" fill="none" xmlns="http://www.w3.org/2000/svg">
<rect width="24" height="24" rx="5" fill="#EBEBEB"/>
<g clip-path="url(#clip0_1_544)">
<path d="M12 5C10.6155 5 9.26216 5.41054 8.11101 6.17971C6.95987 6.94888 6.06266 8.04213 5.53285 9.32122C5.00303 10.6003 4.86441 12.0078 5.13451 13.3656C5.4046 14.7235 6.07129 15.9708 7.05026 16.9497C8.02922 17.9287 9.2765 18.5954 10.6344 18.8655C11.9922 19.1356 13.3997 18.997 14.6788 18.4672C15.9579 17.9373 17.0511 17.0401 17.8203 15.889C18.5895 14.7378 19 13.3845 19 12C18.998 10.1441 18.2599 8.36479 16.9475 7.05247C15.6352 5.74015 13.8559 5.00201 12 5V5ZM12 17.8333C10.8463 17.8333 9.71846 17.4912 8.75918 16.8502C7.79989 16.2093 7.05222 15.2982 6.61071 14.2323C6.16919 13.1664 6.05368 11.9935 6.27876 10.862C6.50384 9.73042 7.05941 8.69102 7.87521 7.87521C8.69102 7.0594 9.73042 6.50383 10.862 6.27875C11.9935 6.05367 13.1664 6.16919 14.2323 6.6107C15.2982 7.05221 16.2093 7.79989 16.8502 8.75917C17.4912 9.71846 17.8333 10.8463 17.8333 12C17.8316 13.5466 17.2165 15.0293 16.1229 16.1229C15.0293 17.2165 13.5466 17.8316 12 17.8333V17.8333Z" fill="black"/>
<path d="M12 10.8334H11.4167C11.262 10.8334 11.1136 10.8949 11.0042 11.0043C10.8948 11.1137 10.8334 11.2621 10.8334 11.4168C10.8334 11.5715 10.8948 11.7199 11.0042 11.8292C11.1136 11.9386 11.262 12.0001 11.4167 12.0001H12V15.5001C12 15.6548 12.0615 15.8032 12.1709 15.9126C12.2803 16.022 12.4287 16.0834 12.5834 16.0834C12.7381 16.0834 12.8865 16.022 12.9959 15.9126C13.1052 15.8032 13.1667 15.6548 13.1667 15.5001V12.0001C13.1667 11.6907 13.0438 11.3939 12.825 11.1751C12.6062 10.9564 12.3095 10.8334 12 10.8334Z" fill="black"/>
<path d="M12 9.66657C12.4832 9.66657 12.875 9.27481 12.875 8.79157C12.875 8.30832 12.4832 7.91656 12 7.91656C11.5168 7.91656 11.125 8.30832 11.125 8.79157C11.125 9.27481 11.5168 9.66657 12 9.66657Z" fill="black"/>
</g>
<defs>
<clipPath id="clip0_1_544">
<rect width="14" height="14" fill="white" transform="translate(5 5)"/>
</clipPath>
</defs>
</svg>
