<svg width="24" height="24" viewBox="0 0 24 24" fill="none" xmlns="http://www.w3.org/2000/svg">
<rect width="24" height="24" rx="5" fill="#EBEBEB"/>
<g clip-path="url(#clip0_1_560)">
<path d="M16.0833 9.914V9.08333C16.0833 8.00037 15.6531 6.96175 14.8873 6.19598C14.1215 5.43021 13.0829 5 12 5C10.917 5 9.87838 5.43021 9.11261 6.19598C8.34683 6.96175 7.91663 8.00037 7.91663 9.08333V9.914C7.39709 10.1407 6.95488 10.514 6.64408 10.988C6.33329 11.4621 6.16737 12.0165 6.16663 12.5833V16.0833C6.16755 16.8566 6.47514 17.5979 7.02192 18.1447C7.5687 18.6915 8.31003 18.9991 9.08329 19H14.9166C15.6899 18.9991 16.4312 18.6915 16.978 18.1447C17.5248 17.5979 17.8324 16.8566 17.8333 16.0833V12.5833C17.8325 12.0165 17.6666 11.4621 17.3558 10.988C17.045 10.514 16.6028 10.1407 16.0833 9.914V9.914ZM9.08329 9.08333C9.08329 8.30979 9.39058 7.56792 9.93756 7.02094C10.4845 6.47396 11.2264 6.16667 12 6.16667C12.7735 6.16667 13.5154 6.47396 14.0624 7.02094C14.6093 7.56792 14.9166 8.30979 14.9166 9.08333V9.66667H9.08329V9.08333ZM16.6666 16.0833C16.6666 16.5475 16.4823 16.9926 16.1541 17.3208C15.8259 17.649 15.3808 17.8333 14.9166 17.8333H9.08329C8.61916 17.8333 8.17404 17.649 7.84586 17.3208C7.51767 16.9926 7.33329 16.5475 7.33329 16.0833V12.5833C7.33329 12.1192 7.51767 11.6741 7.84586 11.3459C8.17404 11.0177 8.61916 10.8333 9.08329 10.8333H14.9166C15.3808 10.8333 15.8259 11.0177 16.1541 11.3459C16.4823 11.6741 16.6666 12.1192 16.6666 12.5833V16.0833Z" fill="black"/>
<path d="M12 13.1667C11.8453 13.1667 11.6969 13.2281 11.5875 13.3375C11.4781 13.4469 11.4166 13.5953 11.4166 13.75V14.9167C11.4166 15.0714 11.4781 15.2197 11.5875 15.3291C11.6969 15.4385 11.8453 15.5 12 15.5C12.1547 15.5 12.303 15.4385 12.4124 15.3291C12.5218 15.2197 12.5833 15.0714 12.5833 14.9167V13.75C12.5833 13.5953 12.5218 13.4469 12.4124 13.3375C12.303 13.2281 12.1547 13.1667 12 13.1667Z" fill="black"/>
</g>
<defs>
<clipPath id="clip0_1_560">
<rect width="14" height="14" fill="white" transform="translate(5 5)"/>
</clipPath>
</defs>
</svg>
