<svg width="24" height="24" viewBox="0 0 24 24" fill="none" xmlns="http://www.w3.org/2000/svg">
<rect width="24" height="24" rx="5" fill="#EBEBEB"/>
<g clip-path="url(#clip0_1_539)">
<path d="M12 5C10.2765 5.00123 8.61441 5.6397 7.33333 6.79258V5.58333C7.33333 5.42862 7.27188 5.28025 7.16248 5.17085C7.05308 5.06146 6.90471 5 6.75 5C6.59529 5 6.44692 5.06146 6.33752 5.17085C6.22812 5.28025 6.16667 5.42862 6.16667 5.58333V7.33333C6.16667 7.79746 6.35104 8.24258 6.67923 8.57077C7.00742 8.89896 7.45254 9.08333 7.91667 9.08333H9.66667C9.82138 9.08333 9.96975 9.02188 10.0791 8.91248C10.1885 8.80308 10.25 8.65471 10.25 8.5C10.25 8.34529 10.1885 8.19692 10.0791 8.08752C9.96975 7.97813 9.82138 7.91667 9.66667 7.91667H7.91667C7.897 7.91375 7.87752 7.90966 7.85833 7.90442C8.80889 6.94707 10.0622 6.34929 11.4045 6.21314C12.7467 6.07698 14.0945 6.41088 15.218 7.15784C16.3414 7.90481 17.1708 9.01852 17.5645 10.3089C17.9583 11.5993 17.892 12.9863 17.3769 14.2332C16.8619 15.4801 15.93 16.5096 14.7405 17.146C13.5509 17.7824 12.1773 17.9862 10.8542 17.7226C9.53112 17.4591 8.34051 16.7444 7.48562 15.7008C6.63072 14.6571 6.16455 13.3491 6.16667 12C6.16667 11.8453 6.10521 11.6969 5.99581 11.5875C5.88642 11.4781 5.73804 11.4167 5.58333 11.4167C5.42862 11.4167 5.28025 11.4781 5.17085 11.5875C5.06146 11.6969 5 11.8453 5 12C5 13.3845 5.41054 14.7378 6.17971 15.889C6.94888 17.0401 8.04213 17.9373 9.32122 18.4672C10.6003 18.997 12.0078 19.1356 13.3656 18.8655C14.7235 18.5954 15.9708 17.9287 16.9497 16.9497C17.9287 15.9708 18.5954 14.7235 18.8655 13.3656C19.1356 12.0078 18.997 10.6003 18.4672 9.32122C17.9373 8.04213 17.0401 6.94888 15.889 6.17971C14.7378 5.41054 13.3845 5 12 5V5Z" fill="black"/>
<path d="M12 8.5C11.8453 8.5 11.6969 8.56146 11.5875 8.67085C11.4781 8.78025 11.4166 8.92862 11.4166 9.08333V12C11.4167 12.1547 11.4781 12.303 11.5875 12.4124L13.3375 14.1624C13.4476 14.2687 13.5949 14.3275 13.7479 14.3261C13.9008 14.3248 14.0471 14.2635 14.1553 14.1553C14.2634 14.0472 14.3248 13.9008 14.3261 13.7479C14.3274 13.595 14.2686 13.4476 14.1624 13.3376L12.5833 11.7585V9.08333C12.5833 8.92862 12.5218 8.78025 12.4124 8.67085C12.303 8.56146 12.1547 8.5 12 8.5Z" fill="black"/>
</g>
<defs>
<clipPath id="clip0_1_539">
<rect width="14" height="14" fill="white" transform="translate(5 5)"/>
</clipPath>
</defs>
</svg>
