<svg width="24" height="24" viewBox="0 0 24 24" fill="none" xmlns="http://www.w3.org/2000/svg">
<rect width="24" height="24" rx="5" fill="#EBEBEB"/>
<g clip-path="url(#clip0_1_2000)">
<path d="M18.1571 12.9692L17.0487 8.98155C16.7239 7.81333 16.0178 6.78722 15.0429 6.06633C14.0679 5.34543 12.8799 4.97113 11.6678 5.00291C10.4556 5.03469 9.2889 5.47073 8.35303 6.24172C7.41716 7.01271 6.76586 8.07441 6.50266 9.25805L5.64457 13.1168C5.54979 13.5432 5.55198 13.9854 5.65099 14.4108C5.74999 14.8362 5.94328 15.234 6.21658 15.5747C6.48988 15.9154 6.83622 16.1904 7.23002 16.3794C7.62382 16.5683 8.05504 16.6664 8.49182 16.6664H9.14166C9.27554 17.3257 9.63325 17.9185 10.1542 18.3443C10.6751 18.77 11.3272 19.0026 12 19.0026C12.6728 19.0026 13.3249 18.77 13.8458 18.3443C14.3667 17.9185 14.7244 17.3257 14.8583 16.6664H15.3472C15.7968 16.6664 16.2404 16.5625 16.6432 16.3627C17.046 16.163 17.3972 15.8728 17.6693 15.5148C17.9414 15.1568 18.1271 14.7408 18.2118 14.2992C18.2965 13.8577 18.278 13.4025 18.1577 12.9692H18.1571ZM12 17.833C11.6393 17.8316 11.288 17.7187 10.9939 17.5098C10.6999 17.301 10.4775 17.0064 10.3573 16.6664H13.6427C13.5224 17.0064 13.3001 17.301 13.0061 17.5098C12.712 17.7187 12.3606 17.8316 12 17.833V17.833ZM16.7402 14.8085C16.5776 15.0241 16.367 15.1989 16.1251 15.3189C15.8832 15.4389 15.6166 15.5008 15.3466 15.4997H8.49182C8.22978 15.4997 7.97109 15.4408 7.73486 15.3274C7.49862 15.214 7.29086 15.049 7.12692 14.8446C6.96297 14.6401 6.84703 14.4015 6.78765 14.1463C6.72827 13.8911 6.72696 13.6258 6.78382 13.37L7.64132 9.51063C7.84803 8.58092 8.35959 7.74699 9.09467 7.1414C9.82976 6.53581 10.7462 6.19332 11.6983 6.16838C12.6504 6.14343 13.5835 6.43747 14.3493 7.00374C15.115 7.57001 15.6696 8.37602 15.9247 9.29363L17.033 13.2813C17.1062 13.5411 17.1179 13.8144 17.0671 14.0795C17.0162 14.3446 16.9043 14.5942 16.7402 14.8085V14.8085Z" fill="black"/>
</g>
<defs>
<clipPath id="clip0_1_2000">
<rect width="14" height="14" fill="white" transform="translate(5 5)"/>
</clipPath>
</defs>
</svg>
