<svg width="24" height="24" viewBox="0 0 24 24" fill="none" xmlns="http://www.w3.org/2000/svg">
<rect width="24" height="24" rx="5" fill="#EBEBEB"/>
<path d="M12 12C12.6922 12 13.3689 11.7947 13.9445 11.4101C14.5201 11.0256 14.9687 10.4789 15.2336 9.83939C15.4985 9.19985 15.5678 8.49612 15.4327 7.81718C15.2977 7.13825 14.9644 6.51461 14.4749 6.02513C13.9854 5.53564 13.3617 5.2023 12.6828 5.06725C12.0039 4.9322 11.3001 5.00152 10.6606 5.26642C10.0211 5.53133 9.47444 5.97993 9.08986 6.55551C8.70527 7.13108 8.5 7.80777 8.5 8.5C8.50093 9.42797 8.86997 10.3177 9.52615 10.9739C10.1823 11.63 11.072 11.9991 12 12ZM12 6.16667C12.4615 6.16667 12.9126 6.30352 13.2963 6.55991C13.68 6.8163 13.9791 7.18071 14.1557 7.60707C14.3323 8.03343 14.3785 8.50259 14.2885 8.95521C14.1985 9.40783 13.9762 9.82359 13.6499 10.1499C13.3236 10.4762 12.9078 10.6985 12.4552 10.7885C12.0026 10.8785 11.5334 10.8323 11.1071 10.6557C10.6807 10.4791 10.3163 10.18 10.0599 9.79633C9.80351 9.41262 9.66667 8.96149 9.66667 8.5C9.66667 7.88116 9.9125 7.28767 10.3501 6.85009C10.7877 6.4125 11.3812 6.16667 12 6.16667Z" fill="black"/>
<path d="M12 13.167C10.6081 13.1685 9.27363 13.7222 8.28939 14.7064C7.30516 15.6906 6.75154 17.0251 6.75 18.417C6.75 18.5717 6.81146 18.7201 6.92085 18.8295C7.03025 18.9389 7.17862 19.0003 7.33333 19.0003C7.48804 19.0003 7.63642 18.9389 7.74581 18.8295C7.85521 18.7201 7.91667 18.5717 7.91667 18.417C7.91667 17.334 8.34687 16.2954 9.11265 15.5296C9.87842 14.7639 10.917 14.3337 12 14.3337C13.083 14.3337 14.1216 14.7639 14.8874 15.5296C15.6531 16.2954 16.0833 17.334 16.0833 18.417C16.0833 18.5717 16.1448 18.7201 16.2542 18.8295C16.3636 18.9389 16.512 19.0003 16.6667 19.0003C16.8214 19.0003 16.9697 18.9389 17.0791 18.8295C17.1885 18.7201 17.25 18.5717 17.25 18.417C17.2485 17.0251 16.6948 15.6906 15.7106 14.7064C14.7264 13.7222 13.3919 13.1685 12 13.167Z" fill="black"/>
</svg>
