<svg width="16" height="16" viewBox="0 0 16 16" fill="none" xmlns="http://www.w3.org/2000/svg">
<path d="M9.04013 7.52671C9.10167 7.58868 9.15052 7.66242 9.18385 7.74366C9.21719 7.8249 9.23435 7.91203 9.23435 8.00004C9.23435 8.08805 9.21719 8.17519 9.18385 8.25643C9.15052 8.33766 9.10167 8.4114 9.04013 8.47337L6.02638 11.5267C5.96484 11.5887 5.91599 11.6624 5.88266 11.7437C5.84932 11.8249 5.83216 11.912 5.83216 12C5.83216 12.088 5.84932 12.1752 5.88266 12.2564C5.91599 12.3377 5.96484 12.4114 6.02638 12.4734C6.1494 12.5975 6.31581 12.6672 6.48928 12.6672C6.66274 12.6672 6.82915 12.5975 6.95217 12.4734L9.96593 9.41337C10.3348 9.03837 10.542 8.53004 10.542 8.00004C10.542 7.47004 10.3348 6.96171 9.96593 6.58671L6.95217 3.52671C6.82988 3.40355 6.66481 3.33411 6.49256 3.33337C6.40615 3.33287 6.32049 3.34968 6.24049 3.38286C6.16049 3.41604 6.08773 3.46492 6.02638 3.52671C5.96484 3.58868 5.91599 3.66242 5.88266 3.74366C5.84932 3.8249 5.83216 3.91203 5.83216 4.00004C5.83216 4.08805 5.84932 4.17519 5.88266 4.25643C5.91599 4.33767 5.96484 4.4114 6.02638 4.47337L9.04013 7.52671Z" fill="black"/>
</svg>
